<?xml version="1.0" standalone="no"?>
<!DOCTYPE svg PUBLIC "-//W3C//DTD SVG 20010904//EN"
 "http://www.w3.org/TR/2001/REC-SVG-20010904/DTD/svg10.dtd">
<svg version="1.0" xmlns="http://www.w3.org/2000/svg"
 width="151.000000pt" height="151.000000pt" viewBox="0 0 151.000000 151.000000"
 preserveAspectRatio="xMidYMid meet">
<metadata>
Created by potrace 1.11, written by Peter Selinger 2001-2013
</metadata>
<g transform="translate(0.000000,151.000000) scale(0.100000,-0.100000)"
fill="#000000" stroke="none">
<path d="M326 1322 c-27 -48 -107 -186 -176 -307 -70 -121 -132 -229 -138
-241 -10 -18 13 -63 177 -345 l188 -324 379 0 378 0 113 195 c62 107 147 254
188 326 l75 130 -129 225 c-72 123 -142 243 -155 267 l-26 42 -72 -46 c-114
-72 -138 -89 -138 -95 0 -4 50 -94 111 -200 l110 -193 -27 -50 c-15 -28 -35
-62 -44 -76 -9 -14 -20 -32 -24 -40 -3 -8 -20 -37 -36 -65 -17 -27 -44 -76
-62 -107 l-33 -58 -230 0 -231 0 -21 38 c-11 20 -61 108 -111 195 -51 87 -92
160 -92 162 0 1 41 74 91 161 50 88 101 176 112 198 15 28 33 44 66 59 25 11
152 69 281 128 l235 109 -355 0 -355 -1 -49 -87z"/>
</g>
</svg>
